<svg xmlns="http://www.w3.org/2000/svg" viewBox="0 0 512 512" width="512" height="512">
  <style>
    .bg { fill: #0d1b2a; }
    .orange { fill: #f57c20; }
    .orange-dark { fill: #c45f10; }
    .orange-light { fill: #ff9a45; }
    .tube { fill: #1e3a52; }
    .tube-light { fill: #2a5070; }
  </style>
  <rect x="0" y="0" width="512" height="512" rx="24" class="bg"/>
  <rect x="0" y="0" width="512" height="512" rx="24" fill="none" stroke="#f57c20" stroke-width="3" opacity="0.3"/>
  <rect x="76" y="60" width="360" height="80" rx="8" class="tube"/>
  <rect x="76" y="60" width="360" height="20" rx="8" class="tube-light" opacity="0.6"/>
  <rect x="76" y="60" width="22" height="80" rx="4" class="tube-light" opacity="0.5"/>
  <rect x="414" y="60" width="22" height="80" rx="4" class="tube-light" opacity="0.5"/>
  <rect x="40" y="75" width="432" height="13" rx="6" class="orange"/>
  <rect x="40" y="75" width="432" height="4" rx="6" class="orange-light" opacity="0.5"/>
  <rect x="40" y="94" width="432" height="12" rx="6" class="orange-dark"/>
  <rect x="40" y="112" width="432" height="12" rx="6" fill="#4a90b8"/>
  <rect x="40" y="112" width="432" height="4" rx="6" fill="#7ab8d4" opacity="0.5"/>
  <circle cx="44" cy="81" r="7" class="orange"/>
  <circle cx="44" cy="81" r="3" fill="#0d1b2a"/>
  <circle cx="44" cy="100" r="6" class="orange-dark"/>
  <circle cx="44" cy="100" r="2.5" fill="#0d1b2a"/>
  <circle cx="44" cy="118" r="6" fill="#4a90b8"/>
  <circle cx="44" cy="118" r="2.5" fill="#0d1b2a"/>
  <circle cx="468" cy="81" r="7" class="orange"/>
  <circle cx="468" cy="81" r="3" fill="#0d1b2a"/>
  <circle cx="468" cy="100" r="6" class="orange-dark"/>
  <circle cx="468" cy="100" r="2.5" fill="#0d1b2a"/>
  <circle cx="468" cy="118" r="6" fill="#4a90b8"/>
  <circle cx="468" cy="118" r="2.5" fill="#0d1b2a"/>
  <text x="256" y="295" text-anchor="middle" font-family="'IBM Plex Mono', 'Courier New', monospace" fill="#ffffff" font-weight="700" font-size="110">DUTO</text>
  <rect x="126" y="312" width="260" height="4" rx="2" fill="#f57c20"/>
  <text x="256" y="368" text-anchor="middle" font-family="'IBM Plex Mono', 'Courier New', monospace" fill="#f57c20" font-weight="400" font-size="44">Passa Fácil</text>
  <text x="256" y="415" text-anchor="middle" font-family="'IBM Plex Mono', 'Courier New', monospace" fill="#2a5070" font-weight="400" font-size="26">NBR 5410</text>
</svg>
